<svg width="173" height="255" viewBox="0 0 173 255" fill="none" xmlns="http://www.w3.org/2000/svg">
<path d="M134.981 54.4193C134.981 52.0193 137 49.2369 139.481 49.1193C142 49 144.081 48.8193 146.381 49.9193C149.581 51.3193 153.981 64.5193 158.881 87.5193C160.481 94.8193 158.281 105.619 152.881 117.619C150.081 123.619 146.781 129.719 145.581 131.119C141.681 135.319 134.081 146.619 132.481 150.419C131.681 152.419 130.981 156.519 130.981 159.519C130.981 165.919 128.681 178.719 126.381 185.219C125.381 187.819 124.981 190.619 125.281 191.519C125.881 193.019 126.481 192.919 130.681 190.519C133.381 189.019 136.281 187.119 137.281 186.219C139.881 184.019 146.981 184.319 148.681 186.719C150.481 189.119 150.381 196.519 148.481 200.519C147.681 202.219 144.381 206.419 141.181 209.719C135.981 215.219 135.481 216.119 136.181 218.719C136.681 220.319 136.981 223.219 136.781 225.119C136.681 227.019 137.381 230.019 138.281 231.819C139.281 233.819 139.981 237.319 139.981 240.919C139.981 246.119 139.581 247.319 137.081 250.019C134.381 252.919 133.681 253.119 127.481 253.119C119.381 253.119 107.881 248.919 101.181 243.419C98.7812 241.519 96.5812 240.219 96.1812 240.519C95.8812 240.919 96.1812 241.619 96.9812 242.219C98.2812 243.019 98.2812 243.219 96.9812 244.119C95.6812 245.019 95.6812 245.119 96.9812 245.119C100.581 245.219 94.2812 248.119 90.4812 248.119C88.1812 248.119 84.8812 248.819 83.2812 249.619C76.7812 252.819 71.9812 247.119 76.9812 242.119C79.9812 239.119 83.7812 237.919 89.7812 238.019L95.0812 238.219L90.1812 232.219C85.2812 226.319 73.9812 208.319 73.9812 206.419C73.9812 205.819 72.6812 202.519 71.0812 199.019C69.4812 195.519 66.9812 188.119 65.4812 182.619C63.9812 177.119 61.7812 169.419 60.5812 165.619C59.2812 161.719 57.6812 155.819 56.9812 152.319C56.2812 148.919 55.2812 146.219 54.8812 146.319C54.3812 146.519 51.6812 148.419 48.7812 150.619C31.3812 163.719 14.0812 189.619 10.8812 207.119C9.78122 213.419 9.88122 213.919 12.4812 219.119C13.9812 222.119 16.7812 226.719 18.5812 229.419C20.4812 232.019 21.9812 234.419 21.9812 234.719C21.9812 235.919 14.9812 234.219 9.58122 231.819C2.98122 228.819 0.781218 224.619 0.181218 214.419C-0.218782 207.519 -0.118782 207.219 2.18122 206.619C3.48122 206.219 5.18122 206.119 5.88122 206.319C7.08122 206.619 8.08122 204.019 10.8812 193.519C11.3812 191.819 14.5812 185.719 17.9812 180.019C27.6812 164.119 36.1812 154.519 47.3812 147.219C51.2812 144.619 55.4812 141.719 56.6812 140.719L58.7812 138.819L56.0812 135.219C54.4812 133.219 52.6812 130.019 51.9812 128.119C51.2812 126.219 50.2812 124.219 49.7812 123.619C48.6812 122.419 48.7812 98.7193 49.8812 93.8193C50.7812 90.2193 50.6812 90.1193 47.8812 90.1193C43.1812 90.1193 38.2812 87.5193 36.5812 84.2193C34.5812 80.4193 34.4812 69.2193 36.3812 64.7193C39.0812 58.1193 46.9812 54.9193 51.0812 58.7193C52.7812 60.3193 52.9812 60.2193 53.8812 57.8193C55.8812 52.7193 63.9812 48.5193 67.5812 50.9193C68.2812 51.3193 68.9812 53.8193 69.1812 56.6193C69.4812 59.3193 69.9812 62.3193 70.3812 63.2193C70.8812 64.3193 70.2812 65.1193 68.4812 65.9193C66.9812 66.6193 65.4812 66.9193 64.9812 66.6193C63.2812 65.5193 62.8812 71.9193 64.3812 75.0193C67.4812 81.0193 65.7812 84.4193 57.5812 88.6193C54.8812 90.0193 52.8812 97.9193 52.6812 108.119C52.4812 118.119 53.5812 121.819 59.2812 130.419C64.2812 138.019 64.1812 137.919 75.9812 143.719C81.1812 146.319 87.7812 149.919 90.6812 151.819C97.0812 156.019 106.181 157.119 117.081 155.119C123.781 153.819 124.081 153.619 125.881 149.719C126.981 147.419 128.881 144.219 130.081 142.519C131.381 140.819 134.381 136.919 136.681 133.819C141.781 127.119 150.181 110.619 152.381 103.119C155.481 92.0193 155.281 77.5193 151.881 66.3193C150.581 62.4193 146.081 59.7193 140.681 59.6193C136.581 59.5193 134.981 58.0193 134.981 54.4193Z" fill="black"/>
<path d="M123.481 55.2193C121.281 55.6193 113.381 56.0193 105.981 56.0193C90.2812 56.1193 81.4812 57.3193 78.0812 59.9193C74.0812 62.9193 74.4812 64.3193 78.6812 61.9193C82.1812 59.8193 83.9812 59.6193 104.481 59.0193C125.681 58.5193 130.981 57.7193 130.981 55.1193C130.981 54.0193 129.181 54.0193 123.481 55.2193Z" fill="black"/>
<path d="M104.181 73.1193C101.181 75.6193 99.5812 81.0193 100.881 84.5193C101.481 85.9193 103.881 88.4193 106.181 90.2193C111.281 93.9193 115.381 93.8193 121.681 89.8193C126.681 86.6193 130.681 79.3193 129.081 76.2193C127.581 73.4193 121.981 72.4193 120.381 74.6193C118.581 77.0193 112.481 76.3193 112.481 73.6193C112.481 70.8193 107.281 70.5193 104.181 73.1193Z" fill="black"/>
<path d="M44.2812 196.619C40.4812 198.219 38.4812 201.819 37.4812 208.619C36.8812 212.619 35.7812 214.619 32.1812 218.619C21.4812 230.519 22.4812 238.819 35.1812 243.219C37.9812 244.319 42.0812 246.319 44.2812 247.819C48.5812 250.819 57.8812 254.119 61.9812 254.119C65.4812 254.119 69.7812 251.019 73.1812 246.019C75.6812 242.219 75.9812 240.919 75.9812 233.619C75.9812 226.219 75.6812 224.719 72.3812 218.219C68.0812 209.619 59.5812 200.019 53.5812 197.219C48.6812 194.819 48.4812 194.719 44.2812 196.619Z" fill="black"/>
<path d="M146.9 11.4193C146.1 8.21932 149.1 1.61932 151.9 0.419319C156.1 -1.48068 163.5 3.41931 163.5 8.21931C163.5 10.9193 165.3 11.4193 166.5 9.11932C167.8 6.71932 172.5 6.31932 172.5 8.61932C172.5 10.0193 169.4 16.5193 166.6 21.1193C166.1 21.9193 165.4 23.4193 165.1 24.3193C164.8 25.3193 162.8 27.3193 160.6 28.9193C156.6 31.8193 157.519 32 152.318 32.0659C153.218 32.0659 153.3 31.0193 153.2 28.6193C153 25.6193 152.7 25.1193 150.5 25.1193C149.1 25.1193 146.2 24.0193 144 22.8193C141 21.1193 140 19.9193 140 18.1193C140 16.1193 140.7 15.4193 143.7 14.7193C147 13.9193 147.4 13.5193 146.9 11.4193Z" fill="black"/>
</svg>
